<?xml version="1.0" standalone="no"?>
<!DOCTYPE svg PUBLIC "-//W3C//DTD SVG 20010904//EN"
 "http://www.w3.org/TR/2001/REC-SVG-20010904/DTD/svg10.dtd">
<svg version="1.0" xmlns="http://www.w3.org/2000/svg"
 width="1280.000000pt" height="720.000000pt" viewBox="0 0 1280.000000 720.000000"
 preserveAspectRatio="xMidYMid meet">
<g transform="translate(0.000000,720.000000) scale(0.100000,-0.100000)"
fill="#000000" stroke="none">
<path d="M6770 5107 l-25 -13 0 -819 0 -820 23 -78 c32 -112 71 -192 135 -279
92 -124 222 -230 361 -293 64 -29 110 -42 258 -75 60 -13 236 -13 296 0 250
55 347 101 494 236 92 85 138 146 194 259 60 122 69 170 68 370 0 198 -8 238
-68 360 -56 112 -108 182 -194 258 -156 138 -264 188 -510 236 -30 6 -174 11
-322 11 -231 0 -271 2 -284 16 -14 13 -16 56 -16 319 0 232 -3 306 -12 312
-23 15 -370 15 -398 0z m1063 -1086 c147 -58 233 -138 286 -266 56 -135 53
-217 -14 -362 -61 -133 -191 -226 -357 -257 -68 -13 -88 -13 -152 -1 -209 40
-332 139 -392 315 -23 69 -24 83 -24 320 0 137 3 256 6 265 6 15 33 16 298 13
274 -4 294 -5 349 -27z"/>
<path d="M1130 4448 c-25 -5 -70 -14 -100 -20 -66 -13 -205 -68 -263 -104 -82
-52 -177 -135 -234 -207 -56 -70 -143 -225 -143 -257 0 -8 -7 -24 -15 -34 -13
-17 -15 -139 -15 -883 l0 -862 21 -11 c24 -13 366 -10 387 3 9 6 12 80 12 312
0 263 2 306 16 319 13 14 54 16 295 16 153 0 298 4 321 9 130 29 195 45 208
53 8 4 37 17 64 28 173 72 365 267 440 448 54 130 81 296 65 405 -36 249 -115
407 -274 547 -159 141 -265 191 -513 239 -64 13 -209 12 -272 -1z m317 -432
c214 -78 341 -285 304 -495 -36 -203 -186 -345 -409 -387 -116 -21 -538 -17
-552 6 -6 8 -10 123 -10 258 0 303 10 348 102 469 65 85 195 159 313 177 62 9
186 -5 252 -28z"/>
<path d="M2346 4444 c-3 -9 -6 -395 -6 -858 0 -642 3 -845 12 -854 15 -15 370
-17 399 -2 19 10 19 30 19 855 0 464 -3 850 -6 859 -5 14 -33 16 -209 16 -176
0 -204 -2 -209 -16z"/>
<path d="M2972 4448 c-22 -22 -13 -45 44 -114 32 -38 98 -123 148 -189 50 -66
116 -151 146 -191 30 -39 98 -127 151 -195 52 -68 99 -130 103 -136 4 -8 -5
-28 -23 -50 -17 -21 -90 -112 -162 -203 -173 -218 -238 -299 -364 -457 -87
-108 -106 -137 -103 -160 l3 -28 275 0 275 0 185 247 c102 136 190 248 197
248 6 0 89 -93 185 -207 95 -114 190 -227 212 -250 l39 -43 267 0 c289 0 300
2 286 52 -3 13 -69 95 -147 183 -489 555 -570 649 -564 663 5 14 90 118 275
337 52 62 145 172 205 245 61 73 125 148 143 167 34 35 40 61 20 81 -9 9 -82
12 -269 12 l-256 0 -60 -72 c-34 -40 -109 -131 -167 -203 -149 -181 -155 -187
-165 -183 -10 3 -314 407 -332 441 -9 15 -33 17 -272 17 -191 0 -266 -3 -275
-12z"/>
<path d="M5505 4448 c-176 -42 -205 -54 -332 -131 -86 -52 -210 -170 -271
-260 -92 -133 -136 -283 -135 -462 0 -151 22 -244 88 -375 48 -95 111 -176
196 -251 87 -76 147 -115 249 -163 154 -70 224 -77 801 -82 439 -4 488 -3 503
11 14 15 16 64 16 448 0 255 -4 465 -11 512 -26 192 -95 337 -230 479 -189
200 -404 287 -699 285 -74 -1 -153 -6 -175 -11z m289 -403 c140 -33 273 -130
327 -237 48 -95 54 -140 54 -413 l0 -250 -280 -3 c-235 -2 -290 0 -340 14
-145 39 -249 127 -313 262 -34 73 -36 82 -36 182 -1 101 1 108 37 182 98 203
334 315 551 263z"/>
<path d="M9470 4451 c-14 -5 -58 -16 -99 -26 -143 -35 -270 -110 -396 -232
-123 -119 -207 -271 -238 -428 -13 -67 -13 -267 0 -335 30 -157 105 -294 232
-420 109 -108 180 -159 290 -205 165 -70 230 -76 802 -81 411 -4 488 -3 498 9
15 18 9 941 -6 1035 -11 66 -46 169 -72 212 -56 94 -94 144 -160 211 -117 118
-254 198 -401 234 -36 9 -81 20 -101 26 -43 11 -313 11 -349 0z m282 -406
c176 -46 307 -156 351 -295 34 -105 38 -156 35 -380 l-3 -225 -289 -3 c-272
-2 -294 -1 -353 19 -177 59 -280 170 -328 353 -19 72 -19 90 1 168 47 186 166
305 357 359 79 22 154 23 229 4z"/>
<path d="M10704 4445 c-3 -8 -4 -241 -2 -517 4 -382 8 -511 18 -538 83 -222
114 -275 230 -390 41 -42 107 -96 145 -122 79 -52 214 -110 295 -126 30 -6 79
-15 108 -21 139 -28 331 -3 501 65 47 19 86 34 88 34 13 0 -3 -58 -29 -110
-58 -112 -168 -198 -304 -236 -35 -10 -117 -19 -199 -23 l-140 -6 0 -189 0
-190 30 -8 c46 -14 403 0 429 17 11 7 37 16 56 20 50 10 149 57 215 100 78 52
199 167 249 239 46 65 106 177 106 198 0 7 8 27 17 43 16 28 18 98 21 875 2
571 0 854 -7 873 l-11 27 -200 0 c-199 0 -200 0 -205 -22 -3 -13 -6 -233 -8
-489 l-2 -466 -43 -85 c-83 -169 -239 -262 -437 -262 -172 1 -332 83 -418 215
-9 14 -28 56 -42 94 l-25 70 0 460 c0 345 -3 464 -12 473 -9 9 -71 12 -215 12
-170 0 -205 -2 -209 -15z"/>
</g>
</svg>
